<?xml version="1.0" encoding="utf-8"?>
<!-- Generator: Adobe Illustrator 26.3.1, SVG Export Plug-In . SVG Version: 6.00 Build 0)  -->
<svg version="1.1" id="Vrstva_1" xmlns="http://www.w3.org/2000/svg" xmlns:xlink="http://www.w3.org/1999/xlink" x="0px" y="0px"
	 viewBox="0 0 566.93 566.93" style="enable-background:new 0 0 566.93 566.93;" xml:space="preserve">
<style type="text/css">
	.st0{fill:#FA0000;}
</style>
<polygon points="363.61,425.02 363.13,440.09 363.08,441.5 373.49,438.22 370.67,434.45 "/>
<g>
	<path d="M190.6,492.52c-0.6-1.89-1.48-3.23-2.67-4.01c-1.18-0.78-2.53-0.93-4.07-0.44c-0.98,0.31-1.75,0.76-2.31,1.37
		c-0.56,0.61-0.91,1.34-1.04,2.19c-0.13,0.85-0.02,1.81,0.31,2.87l0,0l2.2,6.99c0.32,1.01,0.77,1.82,1.35,2.42
		c0.59,0.61,1.29,0.99,2.1,1.15c0.81,0.16,1.7,0.09,2.67-0.22c1.54-0.49,2.57-1.37,3.1-2.65c0.52-1.28,0.49-2.86-0.09-4.71
		L190.6,492.52z"/>
	<path d="M457.77,428l-1.49-4.72c-0.17,1.5-0.58,2.91-1.39,4.21c-0.98,1.58-2.45,2.67-4.38,3.29c-3.33,1.05-6.24,0.79-8.74-0.78
		c-2.49-1.57-4.36-4.33-5.6-8.26l-5.18-16.43l-0.87-2.76l3-0.95l5.2-1.64l5.95,18.89c0.48,1.49,1.26,2.52,2.37,3.08
		c1.11,0.56,2.43,0.6,3.97,0.11c1.54-0.48,2.59-1.28,3.15-2.39c0.56-1.11,0.6-2.45,0.1-4.03l0.02,0.05l-5.91-18.76l8.17-2.57
		l9.79,31.06L457.77,428z M420.86,439.61l-8.4-8.8l-16.91-17.71l1.63,5.18l1.8,5.7l5.03,15.96l1.43,4.54l-7.85,2.48l-0.22-0.71
		l-4.95-15.7l-3.86-12.25l-3.97-12.6l-0.7-2.23l10.03-3.16l5.2,5.5L417.3,425l2.13,2.25l-1.12-3.55l-8.92-28.31l7.84-2.47
		l7.13,22.61l6.59,20.88L420.86,439.61z M383.4,451.45l-4.64-6.2l-15.95,5.03l-0.25,7.74l-8.83,2.78l0.93-15.54l1.85-30.86
		l0.14-2.37l5.21-1.64l15.08,19.01l7.34,9.25l7.94,10.01L383.4,451.45z M340.44,452.66l3.54,11.21l-8.2,2.59l-3.31-10.48
		l-7.92-25.13l-11.85,3.74l-2.49-7.9l31.91-10.06l2.49,7.9l-11.85,3.74L340.44,452.66z M318.71,465.66
		c-0.67,2.38-2.09,4.49-4.24,6.31c-2.16,1.82-4.98,3.28-8.47,4.38c-2.08,0.65-4.17,1.09-6.29,1.29c-2.12,0.21-4.18,0.18-6.18-0.08
		c-2-0.25-3.87-0.73-5.61-1.44l1.67-7.96c2.11,0.85,4.38,1.31,6.81,1.36c2.43,0.06,4.8-0.28,7.12-1.01c2.68-0.84,4.61-1.96,5.8-3.33
		c0.68-0.79,1-1.63,1.12-2.51c0.09-0.66,0.1-1.33-0.12-2.03l-0.01-0.03c-0.36-1.16-0.98-1.98-1.85-2.45
		c-0.88-0.47-1.89-0.7-3.05-0.68c-1.16,0.01-2.61,0.15-4.34,0.41c-0.07,0-0.13,0.01-0.18,0.02c-0.05,0.02-0.11,0.03-0.18,0.02
		l-0.68,0.12c-3.06,0.46-5.66,0.65-7.79,0.56c-2.13-0.08-4.14-0.78-6.02-2.09c-1.88-1.3-3.32-3.54-4.33-6.72l-0.01-0.03
		c-0.89-2.81-1.02-5.41-0.39-7.8c0.63-2.39,1.98-4.49,4.04-6.3c2.07-1.8,4.79-3.23,8.19-4.31c1.56-0.49,3.2-0.82,4.94-0.97
		c1.74-0.15,3.49-0.13,5.26,0.05c1.77,0.19,3.5,0.54,5.21,1.06l-1.29,8.04c-2.04-0.63-4.08-0.97-6.1-1.04
		c-2.02-0.06-3.87,0.17-5.56,0.7c-2.51,0.79-4.33,1.82-5.44,3.09c-1.12,1.26-1.43,2.64-0.96,4.13l0.01,0.03
		c0.4,1.26,1.07,2.14,2.02,2.64c0.95,0.51,2,0.76,3.17,0.76c1.16,0.01,2.76-0.1,4.8-0.33c0.09-0.01,0.17-0.01,0.26-0.03
		c0.08-0.01,0.16-0.02,0.25-0.03c0.13-0.02,0.25-0.03,0.37-0.04c0.12,0,0.24-0.02,0.37-0.03c2.92-0.33,5.43-0.4,7.52-0.22
		c2.09,0.19,4.02,0.94,5.8,2.26c1.78,1.31,3.13,3.45,4.06,6.41l0.01,0.06c0.28,0.89,0.35,1.73,0.47,2.59
		C319.13,462.3,319.17,464.04,318.71,465.66 M257.36,491.18l-13.46,4.25l-2.1-6.66l-0.13-0.41l8.9-21l-13.71,4.33l-2.35-7.46
		l7.24-2.28l15.87-5l2.19,6.94l-0.5,1.25l-7.98,19.75l14.55-4.59l2.35,7.45L257.36,491.18z M231.11,498.62
		c-1.76,1.44-3.67,2.49-5.72,3.14c-2.99,0.94-5.72,1.2-8.19,0.78c-2.47-0.41-4.59-1.49-6.36-3.22c-1.78-1.73-3.12-4.06-4.05-7
		l-1.11-3.5c-0.96-3.07-1.26-5.86-0.88-8.37c0.17-1.12,0.51-2.14,0.95-3.12c0.53-1.21,1.22-2.34,2.16-3.33
		c1.68-1.78,3.97-3.12,6.87-4.04c2.71-0.85,5.25-0.91,7.61-0.16c2.36,0.75,4.46,2.26,6.28,4.52c1.82,2.27,3.3,5.22,4.46,8.88
		l0.64,2.03l-2.94,0.93l-16,5.05c0.67,1.46,1.55,2.62,2.77,3.24c1.55,0.79,3.4,0.84,5.53,0.16c1.09-0.35,2.12-0.88,3.08-1.61
		c0.95-0.73,1.75-1.59,2.41-2.59l6.85,3.07C234.33,495.46,232.88,497.18,231.11,498.62 M199.29,508.24
		c-1.23,1.55-2.94,2.67-5.14,3.36c-1.81,0.57-3.53,0.6-5.14,0.09c-1.33-0.42-2.48-1.27-3.51-2.37l1.29,4.1l-8.2,2.59l-13.72-43.51
		l8.2-2.58l5.25,16.65c0.34-1.52,0.85-2.89,1.68-4.01c1.05-1.42,2.41-2.39,4.06-2.91c2.2-0.69,4.24-0.76,6.14-0.19
		c1.9,0.57,3.58,1.73,5.04,3.51c1.46,1.78,2.64,4.09,3.54,6.94l1.57,4.97c0.9,2.83,1.25,5.38,1.06,7.64
		C201.23,504.79,200.52,506.7,199.29,508.24 M473.73,356.73l-24.78,7.81l-31.28,9.86l-48.91,15.42l-27.98,8.82l-142.95,45.07
		l-31.39,9.9l-33.9,10.69l25.57,81.09l341.21-107.59L473.73,356.73z"/>
	<path d="M224.54,482.05l-0.32-0.69c-0.79-1.73-1.79-2.94-3-3.63c-1.22-0.69-2.59-0.79-4.1-0.32c-1.86,0.58-3.12,1.61-3.87,2.99
		c-0.04,0.08-0.13,0.13-0.17,0.22c-0.66,1.41-0.66,3.12-0.13,5.08l8.02-2.53L224.54,482.05z"/>
	<path d="M168.1,351.17c13.26,11,29.15,16.63,45.23,21.64c11.08,3.45,22.4,6.1,33.6,9.15c1.19,0.32,1.83-0.07,2.36-1.04
		c3.04-5.39,6.37-10.64,9.06-16.19c14.68-30.32,27.2-61.57,39.28-92.98c6.11-15.9,11.84-31.95,17.73-47.93
		c0.19-0.52,0.37-1.05,0.6-1.72c-31.03,10.45-62.42,10.48-94.44,4.61c0.15-0.24-0.05-0.03-0.13,0.22
		c-7.98,25.91-18.75,50.74-29.89,75.38c-7.08,15.65-14.8,31-22.25,46.48c-0.32,0.68-0.77,1.31-1.16,1.95V351.17z"/>
	<path d="M253,380.96c5.52-1.68,11.16-3.36,16.79-5.11c10.09-3.12,20.2-6.23,30.25-9.5c1.38-0.45,2.92-1.57,3.59-2.8
		c1.8-3.35,3.42-6.85,4.68-10.44c6.55-18.67,11.19-37.88,15.82-57.09c0.11-0.46,0.26-0.9,0.56-1.89c1.47,4.85,2.66,9.22,4.11,13.5
		c4.15,12.17,8.35,24.33,12.66,36.45c0.71,2,1.96,3.84,3.18,5.61c0.38,0.54,1.59,1.01,2.21,0.82c10.05-3.04,20.06-6.19,30.28-9.38
		c-20.32-39.6-42.19-78.25-57.7-119.01c-10.09,26.14-20.17,53.17-30.94,79.93C277.75,328.79,267.2,355.68,253,380.96"/>
	<path d="M211.18,403.05l-0.38-0.93c10.68-4.4,22.32-16.01,34.6-34.51c9.85-14.84,20.13-34.11,30.54-57.28
		c17.73-39.46,29.86-77.03,29.98-77.4l0.95,0.31c-0.12,0.37-12.26,37.99-30.01,77.5c-10.43,23.21-20.74,42.54-30.62,57.42
		c-5.89,8.85-11.68,16.22-17.24,21.9C222.87,396.33,216.87,400.7,211.18,403.05"/>
</g>
<polygon points="207.72,396.64 211.26,406.68 212.03,406.5 210.84,395.93 "/>
<g>
	<path d="M408.67,345.73c-13.58-1.3-26.73-8.13-39.06-20.29c-9.83-9.7-19.17-22.81-27.78-38.95c-7.64-14.35-13.27-28.49-16.64-37.83
		c-3.66-10.12-5.53-16.94-5.56-17.01l0.96-0.26c0.02,0.07,1.89,6.86,5.54,16.96c3.36,9.31,8.97,23.41,16.59,37.7
		c13.42,25.19,35.76,55.81,66.04,58.7L408.67,345.73z"/>
</g>
<polygon points="407.7,349.13 408.48,349.28 411.57,339.1 408.43,338.52 "/>
<g>
	<path d="M149.42,371.34l-0.38-0.93c10.68-4.4,21.72-14.24,32.81-29.25c8.9-12.04,17.84-27.4,26.57-45.66
		c14.88-31.11,24.12-60.22,24.21-60.51l0.95,0.3c-0.1,0.29-9.35,29.46-24.26,60.63c-8.76,18.32-17.73,33.74-26.67,45.83
		C171.46,356.91,160.27,366.87,149.42,371.34"/>
</g>
<polygon points="145.95,364.94 149.48,374.97 150.26,374.79 149.08,364.22 "/>
<g>
	<path class="st0" d="M169.41,205.37c-3.66,3.66-7.11,7.53-10.39,11.55l181.73,181.73l27.98-8.82L177.21,198.29
		C174.56,200.6,171.89,202.89,169.41,205.37z"/>
	<path class="st0" d="M277.5,134.58c-98.79,0-178.89,80.09-178.89,178.88c0,56.81,26.52,107.4,67.81,140.17l31.39-9.9
		c-1.92-1.17-3.9-2.24-5.76-3.5c-8.1-5.47-15.71-11.75-22.63-18.68c-6.93-6.93-13.21-14.55-18.68-22.64
		c-5.52-8.17-10.26-16.91-14.09-25.96c-3.89-9.21-6.89-18.85-8.9-28.66c-2.06-10.07-3.1-20.45-3.1-30.83
		c0-10.39,1.04-20.76,3.1-30.83c2.01-9.8,5-19.44,8.9-28.65c3.83-9.05,8.57-17.79,14.09-25.96c2.58-3.82,5.37-7.51,8.3-11.1l0,0
		c3.28-4.02,6.73-7.89,10.39-11.55c2.48-2.48,5.15-4.77,7.79-7.08l-0.61-0.61l0.61,0.61c4.74-4.14,9.65-8.09,14.84-11.6
		c8.18-5.52,16.91-10.26,25.96-14.08c9.21-3.9,18.86-6.89,28.66-8.9c10.07-2.06,20.45-3.11,30.83-3.11
		c10.39,0,20.76,1.04,30.83,3.11c9.8,2.01,19.45,5,28.66,8.9c9.05,3.83,17.78,8.57,25.96,14.08c8.1,5.47,15.72,11.76,22.64,18.68
		c6.93,6.92,13.21,14.54,18.68,22.64c5.52,8.17,10.26,16.91,14.09,25.96c3.89,9.21,6.89,18.85,8.9,28.65
		c2.06,10.07,3.1,20.44,3.1,30.83c0,10.39-1.04,20.76-3.1,30.83c-2.01,9.81-5.01,19.45-8.9,28.66c-0.21,0.49-0.49,0.96-0.7,1.45
		l31.28-9.86c4.82-16.19,7.44-33.33,7.44-51.08C456.39,214.67,376.29,134.58,277.5,134.58z"/>
</g>
<g>
	<path d="M488.23,159l-6.33-8.25l-42.25,32.39l6.33,8.25L488.23,159z M421.19,163.84c2.45,2.28,5.12,3.78,8.02,4.52
		c2.9,0.73,5.92,0.68,9.05-0.16c3.13-0.84,6.27-2.44,9.41-4.82l-7.61-7.08c-1.48,1.05-2.94,1.76-4.38,2.13
		c-1.44,0.36-2.81,0.38-4.1,0.06c-1.3-0.32-2.48-0.99-3.56-1.98c-1.37-1.28-2.28-2.65-2.72-4.11c-0.44-1.46-0.42-2.96,0.07-4.51
		c0.49-1.55,1.44-3.08,2.85-4.6l9.95-10.69c1.41-1.52,2.88-2.58,4.39-3.19c1.52-0.61,3.02-0.74,4.51-0.41
		c1.49,0.34,2.92,1.14,4.3,2.42c1.05,0.98,1.78,2.11,2.18,3.38c0.4,1.27,0.47,2.64,0.22,4.11c-0.25,1.47-0.83,2.98-1.74,4.53
		l7.61,7.08c2.16-3.29,3.55-6.53,4.16-9.71c0.61-3.18,0.44-6.2-0.5-9.05c-0.95-2.85-2.65-5.42-5.09-7.69
		c-2.97-2.76-6.04-4.55-9.21-5.37c-3.17-0.82-6.32-0.66-9.45,0.48c-3.13,1.14-6.12,3.25-8.98,6.32l-9.95,10.69
		c-2.86,3.07-4.75,6.21-5.66,9.41c-0.91,3.2-0.84,6.35,0.21,9.45C416.22,158.15,418.23,161.08,421.19,163.84 M414.44,87.12
		l13.51-1.63l-2.25-9.28l-13.26,2.58L414.44,87.12z M376.94,120.7l24.11,14.25l4.92-8.32l-24.11-14.26L376.94,120.7z M364.18,123.07
		l9.3,5.5l29.47-24.81l-7.53,37.78l9.3,5.5l9.57-56.18l-5.48-3.24L364.18,123.07z M355.84,60.45l15.28-5.92l-3.58-6.83l-8.94,3.49
		l-5.58-7.81l-6.73,3.76L355.84,60.45z M319.57,108.9l9.19,2.73l11.72-39.41l-1.11,0.66l7.46,44.12l11.83,3.52l15.17-50.99
		l-9.19-2.73l-11.9,40l1.11-0.66l-7.36-44.74l-11.76-3.5L319.57,108.9z M276.31,96.44l27.95,1.77l0.61-9.65l-27.95-1.77
		L276.31,96.44z M266.01,104.34l10.78,0.68l15.02-35.48l10.42,37.09l10.78,0.68L296.05,52.9l-6.36-0.4L266.01,104.34z M229.77,52.96
		l10.84-12.29l-6.33-4.42l-6.34,7.22l-8.55-4.36l-4.24,6.44L229.77,52.96z M219.89,112.67l9.42-1.81l-7.74-40.38l-0.69,1.1
		l26.94,35.73l12.12-2.32l-10.01-52.25l-9.42,1.81l7.85,40.99l0.68-1.1l-27.13-36.33l-12.05,2.31L219.89,112.67z M175.73,121.98
		l25.38-11.85l-4.09-8.76l-25.38,11.85L175.73,121.98z M170.49,133.84l9.79-4.57l-3.84-38.33l26.93,27.55l9.78-4.57L172.18,74.3
		l-5.77,2.7L170.49,133.84z M143.09,154.43l24.76-18.98l-5.88-7.67l-24.76,18.98L143.09,154.43z M139.55,157.15l7.96-6.1
		l-32.39-42.25l-7.96,6.1L139.55,157.15z M108.58,191.12l6.48-7.66l-40.65-34.37l-6.48,7.66L108.58,191.12z M95.77,174.29
		l10.83-12.8c2.14-2.53,3.52-5.2,4.12-8c0.61-2.8,0.42-5.52-0.55-8.16c-0.98-2.65-2.7-5.02-5.18-7.11c-2.48-2.1-5.11-3.41-7.89-3.94
		c-2.78-0.53-5.5-0.27-8.17,0.79c-2.66,1.05-5.07,2.85-7.21,5.39l-10.83,12.8l7.38,6.24l10.99-13c0.79-0.93,1.69-1.57,2.7-1.91
		c1.01-0.35,2.06-0.38,3.16-0.11c1.1,0.27,2.15,0.83,3.15,1.68c0.99,0.84,1.7,1.77,2.13,2.81c0.43,1.04,0.56,2.08,0.39,3.14
		c-0.17,1.05-0.64,2.04-1.41,2.95l-10.99,13L95.77,174.29z"/>
</g>
</svg>
